<svg xmlns="http://www.w3.org/2000/svg" viewBox="0 0 145.08 57.25"><defs><style>.cls-1{fill:#fff;}</style></defs><title>Logo_3</title><g id="Layer_2" data-name="Layer 2"><g id="Isolation_Mode" data-name="Isolation Mode"><path class="cls-1" d="M144,6.28,145.08,0H102.75l-3.6,20.42H83.52l.75-4.08h13l1.06-6h-13L86,6.28h15L102.14,0H80.07L76.12,22.39H74.38l-2.63-5.15,5-4.28,1.46-8.44L74.54,0H33.24l-.45,2.57L30.68,0H16l-5.3,4.52L9.39,11.9,12.81,16l11.51.67.51.63-.4,2.24-1.21,1H14.65l-2.23-2.75L7,22.39H4.49L2.93,27.91H138.74l1.56-5.52h-7.38l2.85-16.11Zm-82,0h8l.71.87-.55,3.18-1.06.9h-8Zm2.51,11.2L67,22.39h-7.8L60,17.48ZM54.93,6.28,52.09,22.39H44.57L47.42,6.28ZM29,10.64,17.44,10l-.51-.63.36-2.2,1.21-1h7.7l2.12,2.59,4-3.38-.17.94h8.21L37.5,22.39H30.8l.23-.2,1.34-7.42Zm91.92,11.75.34-2h-15l.75-4.08h13l1.07-6H108l.74-4.09h20l-2.85,16.11ZM0,38H4.53L1.12,57.25H6.55L8.7,45.1l3.12,9.12h2.24l6.35-9.12L18.26,57.25h5.68L27.35,38H28l-3.4,19.29H60.65l.88-5H49.47l.6-3.28H60.52l.85-4.8H50.89l.6-3.28H63.55l.5-2.88h.56l-.5,2.88h5L66.16,57.25h5.69l2.9-16.41h5L80.22,38h.71l-.51,2.88h3.79l-2,11.36H78.4l-.88,5H96.89l2.3-13.16,6.47,13.16h4.67l.71-4,3.29,4h8l2.94-2.52-.06,2.52h4.32l2.28-13h-9.73l-.79,4.48h4L125.09,50l-2.55,2.18h-4.71l-1-1.2,1.55-8.71,1.71-1.45h5.46l1.8,2.21,4.51-3.82-1-1.27h5l1.56-5.53H1.56Zm14,8.68-3-8.68h9ZM43.8,52.2H31.15l.6-3.28H42.2l.85-4.8H32.57l.6-3.28H45.23l.5-2.88h.58Zm44.07,0,2-11.36h3.79l.5-2.88h.68L92.35,52.2ZM101.58,38h6.73L106.54,48Zm11.84,1.82.32-1.82h1.82Z"/></g></g></svg>