<svg xmlns="http://www.w3.org/2000/svg" viewBox="0 0 167.52 98.85"><defs><style>.cls-1{fill:#fff;}</style></defs><title>Logo_1</title><g id="Layer_2" data-name="Layer 2"><g id="Isolation_Mode" data-name="Isolation Mode"><path class="cls-1" d="M21.63,94.83H64.76v.47H21.21l0-.19-1.32-9.18h.49Zm135.9-8.9,1.26,8.9H114v.47h45.3L158,85.93ZM9,6.76,8.12.47H145.29l.9,6.29h.47L145.72.21l0-.21H7.57l1,6.76ZM156.77,20.65l-3.29,18.6H162l-1.8,6.38H3.39l1.8-6.38H8.12L14.34,34l2.58,3.17h9.89L28.21,36l.46-2.58-.59-.73L14.79,31.9l-3.94-4.76,1.49-8.53,6.12-5.21h17l2.45,3,.52-3H86.06l4.27,5.21-1.68,9.75L82.84,33.3l3,6h2L92.45,13.4h25.49l-1.27,7.25H99.34l-.86,4.72h15.06l-1.23,6.89h-15L96.44,37h18l4.16-23.58h48.88l-1.27,7.25ZM70.6,26.37h9.2L81,25.32l.63-3.67-.81-1H71.6Zm-1.32,7.21-1,5.67h9l-2.8-5.67ZM54.76,20.65l-3.29,18.6h8.67l3.28-18.6Zm-17.39,9.8L35.83,39l-.27.23H43.3l3.29-18.6H37.12l.19-1.08L32.7,23.46l-2.45-3H21.37L20,21.65l-.41,2.54.59.73,13.29.77Zm108,8.8,3.29-18.6H125.54l-.87,4.72h15.06l-1.22,6.89h-15L122.63,37H140l-.4,2.27Zm-30.79,25-2.66,15.2H89.51l1-5.83H94.9l2.33-13.12H92.86l.58-3.33h-.82L92,60.55H86.31L83,79.5H76.4l3.35-19H74l.59-3.33H74l-.58,3.33H59.46l-.7,3.79h12.1l-1,5.54H57.82l-.7,3.79H71.05L70,79.5H28.39l3.93-22.28h-.74L27.65,79.5H21.09l2.47-14L16.24,76H13.65L10,65.47l-2.47,14H1.3L5.23,57.22H0l1.8-6.37H158.61l-1.8,6.37h-5.75l1.21,1.47-5.21,4.41L145,60.55h-6.31l-2,1.68-1.78,10.06,1.13,1.38h5.43l2.95-2.51.25-1.46H140l.91-5.18h11.23l-2.63,15h-5l.07-2.91-3.39,2.91H132l-3.8-4.62-.81,4.62H122ZM123,68.86l2-11.64h-7.77Zm10.41-11.64h-2.1L131,59.33Zm-110.26,0H12.76l3.44,10Zm30.3,0h-.66l-.58,3.33H38.3l-.69,3.79h12.1l-1,5.54H36.66L36,73.67h14.6Zm53.16,16.45,2.9-16.45h-.78l-.58,3.33h-4.38l-2.33,13.12ZM78.81,90.45l-.6,3.42-2,1.71H71.88l-.58,3.27H68.62l1.79-10.11h7Zm-3.1,2.43L76,91.45l-.27-.33h-3l-.38,2.08h3Zm9.64.11-.74,4.27-1.88,1.59H78.81L77.5,97.26,78.24,93l1.88-1.59H84Zm-3.12,3.42.46-2.63-.3-.35H81.11l-.49.41-.46,2.63.3.36h1.28Zm5.68.42h.8l-.36,2H86.26l-1.33-1.6,1.61-9.1h2.53l-1.48,8.31Zm6.79-2.44.94,1.15-.37,2.06L93.8,98.85H89.16l-1-1.2,1.75-1.49.69.83h2l.26-.23.11-.55L92.84,96l-3-.17-.94-1.15.37-2.07,1.48-1.25h4.31l1,1.15L94.29,94l-.64-.78H92l-.27.24-.1.55.13.16Zm6.32.75,2.26,3.71H100.4l-1.93-3.37-.6,3.37H95.34l1.89-10.7h2.53l-1.12,6.3,2.65-3h3.08Zm8.38,3.71h-2.24l.17-1.16L106,98.85h-2l-1.31-1.59.65-3.74,2.49-2.12h5Zm-2.89-2,.83-.71.48-2.69h-1.15l-1,.87-.36,2,.45.53Z"/></g></g></svg>